
<?xml version="1.0" standalone="no"?>
<!DOCTYPE svg PUBLIC "-//W3C//DTD SVG 20010904//EN"
 "http://www.w3.org/TR/2001/REC-SVG-20010904/DTD/svg10.dtd">
<svg version="1.0" xmlns="http://www.w3.org/2000/svg"
 width="152.000000pt" height="98.000000pt" viewBox="0 0 152.000000 98.000000"
 preserveAspectRatio="xMidYMid meet">
<metadata>
Created by potrace 1.16, written by Peter Selinger 2001-2019
</metadata>
<g transform="translate(0.000000,98.000000) scale(0.026808,-0.017223)"
fill="#000000" stroke="none">
<path d="M0 2845 l0 -2845 2835 0 2835 0 0 2845 0 2845 -2835 0 -2835 0 0
-2845z m5540 5 l0 -2720 -2720 0 -2720 0 0 2720 0 2720 2720 0 2720 0 0 -2720z"/>
<path d="M120 2850 l0 -2700 2700 0 2700 0 0 2700 0 2700 -2700 0 -2700 0 0
-2700z m3240 1560 l0 -60 60 0 60 0 0 -180 0 -180 60 0 60 0 0 -120 0 -120 60
0 60 0 0 -180 0 -180 120 0 120 0 0 -60 0 -60 60 0 60 0 0 -180 0 -180 60 0
60 0 0 -120 0 -120 60 0 60 0 0 -120 0 -120 60 0 60 0 0 -120 0 -120 60 0 60
0 0 -120 0 -120 60 0 60 0 0 -120 0 -120 60 0 60 0 0 -120 0 -120 60 0 60 0 0
-120 0 -120 -480 0 -480 0 0 60 0 60 -60 0 -60 0 0 -60 0 -60 -1080 0 -1080 0
0 60 0 60 -60 0 -60 0 0 -60 0 -60 -480 0 -480 0 0 60 0 60 60 0 60 0 0 120 0
120 60 0 60 0 0 120 0 120 60 0 60 0 0 120 0 120 60 0 60 0 0 120 0 120 60 0
60 0 0 120 0 120 60 0 60 0 0 120 0 120 60 0 60 0 0 240 0 240 60 0 60 0 0 60
0 60 120 0 120 0 0 180 0 180 180 0 180 0 0 60 0 60 -60 0 -60 0 0 60 0 60 60
0 60 0 0 60 0 60 180 0 180 0 0 -60 0 -60 60 0 60 0 0 120 0 120 60 0 60 0 0
120 0 120 300 0 300 0 0 -60z"/>
<path d="M2160 3930 l0 -60 120 0 120 0 0 60 0 60 -120 0 -120 0 0 -60z"/>
<path d="M3000 3930 l0 -60 120 0 120 0 0 -60 0 -60 120 0 120 0 0 60 0 60
-120 0 -120 0 0 60 0 60 -120 0 -120 0 0 -60z"/>
<path d="M2160 3570 l0 -60 -120 0 -120 0 0 -60 0 -60 120 0 120 0 0 60 0 60
120 0 120 0 0 60 0 60 -120 0 -120 0 0 -60z"/>
<path d="M3120 3570 l0 -60 120 0 120 0 0 -60 0 -60 120 0 120 0 0 60 0 60
-120 0 -120 0 0 60 0 60 -120 0 -120 0 0 -60z"/>
<path d="M1800 2970 l0 -60 120 0 120 0 0 -60 0 -60 60 0 60 0 0 -60 0 -60
120 0 120 0 0 -60 0 -60 360 0 360 0 0 60 0 60 120 0 120 0 0 60 0 60 60 0 60
0 0 60 0 60 120 0 120 0 0 60 0 60 -120 0 -120 0 0 -60 0 -60 -720 0 -720 0 0
60 0 60 -120 0 -120 0 0 -60z"/>
<path d="M2280 2370 l0 -60 60 0 60 0 0 -60 0 -60 360 0 360 0 0 60 0 60 60 0
60 0 0 60 0 60 -60 0 -60 0 0 -60 0 -60 -360 0 -360 0 0 60 0 60 -60 0 -60 0
0 -60z"/>
</g>
</svg>
